<?xml version="1.0" encoding="UTF-8"?>
<svg width="216px" height="62px" viewBox="0 0 216 62" version="1.1" xmlns="http://www.w3.org/2000/svg" xmlns:xlink="http://www.w3.org/1999/xlink">
    <!-- Generator: Sketch 53.2 (72643) - https://sketchapp.com -->
    <title>eHA_logo_white Kopie</title>
    <desc>Created with Sketch.</desc>
    <g id="Page-1" stroke="none" stroke-width="1" fill="none" fill-rule="evenodd">
        <g id="eHA_logo_white-Kopie">
            <polyline id="Path" fill="#477BB2" fill-rule="nonzero" points="39.0542837 51.9877819 38.9914886 52.0019089 38.9457163 52.0122181 39.0542837 51.9877819"></polyline>
            <path d="M77.0434596,44.2248031 L74.7902395,49.1955877 L79.244371,49.1955877 L77.0434596,44.2248031 Z M74.1963556,50.4791359 L72.6070271,54 L71,54 L77.0788568,41 L83,54 L81.3756681,54 L79.8209501,50.4791359 L74.1963556,50.4791359 Z" id="Shape" fill="#FFFFFF" fill-rule="nonzero"></path>
            <polyline id="Path" fill="#FFFFFF" fill-rule="nonzero" points="103.46938 43.3455775 103.46938 47.2076093 107.859797 47.2076093 107.859797 48.5524099 103.46938 48.5524099 103.46938 55 102 55 102 42 108 42 108 43.3455775 103.46938 43.3455775"></polyline>
            <path d="M128.34867,48.01744 L128.766176,48.01744 C130.291247,48.01744 131.832585,47.7068625 131.832585,45.6900498 C131.832585,43.5521113 130.371495,43.3455775 128.750271,43.3455775 L128.34867,43.3455775 L128.34867,48.01744 Z M128.34867,55 L127,55 L127,42 L128.750271,42 C131.046373,42 133.181616,42.6553186 133.181616,45.5860061 C133.181616,47.5861257 132.009347,49.0004182 130.147018,49.1720122 L134,55 L132.346243,55 L128.685928,49.2931375 L128.34867,49.2931375 L128.34867,55 Z" id="Shape" fill="#FFFFFF" fill-rule="nonzero"></path>
            <polygon id="Path" fill="#FFFFFF" fill-rule="nonzero" points="154 55 155 55 155 42 154 42"></polygon>
            <path d="M185,44.9670325 C184.029473,43.9327368 182.685526,43.3000002 181.278189,43.3000002 C178.560421,43.3000002 176.359248,45.7333719 176.359248,48.4996249 C176.359248,51.2666285 178.576087,53.7000002 181.310612,53.7000002 C182.685526,53.7000002 184.029473,53.0331123 185,52.033343 L185,53.7671767 C183.947503,54.550029 182.653102,55 181.358702,55 C177.912674,55 175,52.1166573 175,48.5502888 C175,44.9497693 177.864585,42 181.358702,42 C182.71795,42 183.915808,42.3993075 185,43.2331988 L185,44.9670325" id="Path" fill="#FFFFFF" fill-rule="nonzero"></path>
            <path d="M210.043264,44.2248031 L207.790364,49.1955877 L212.244248,49.1955877 L210.043264,44.2248031 Z M207.19646,50.4791359 L205.606686,54 L204,54 L210.078269,41 L216,54 L214.376008,54 L212.821239,50.4791359 L207.19646,50.4791359 Z" id="Shape" fill="#FFFFFF" fill-rule="nonzero"></path>
            <path d="M82.7187634,22.639831 C82.3841861,20.758868 80.7112997,19.5301901 78.8899636,19.5301901 C76.9201774,19.5301901 75.2849685,20.6051373 74.8761661,22.639831 L82.7187634,22.639831 Z M89,26.6710775 L74.7646404,26.6710775 C74.7646404,29.5121761 76.2140989,31.0483154 79.0014893,31.0483154 C80.4513242,31.0483154 81.49198,30.5489826 82.2353596,29.2432447 L88.7400246,29.2432447 C88.2193197,31.5468698 86.8810105,33.2359613 85.1346526,34.3494385 C83.3875412,35.4633048 81.2320046,36 79.0387901,36 C72.7202527,36 68,32.3147448 68,25.5194596 C68,18.9541866 72.3487515,15 78.5553863,15 C85.1715766,15 89,19.2227288 89,25.9417324 L89,26.6710775 Z" id="Shape" fill="#FFFFFF" fill-rule="nonzero"></path>
            <polyline id="Path" fill="#FFFFFF" fill-rule="nonzero" points="109.740918 17.8058618 109.740918 7 117 7 117 35 109.740918 35 109.740918 23.525195 99.2594574 23.525195 99.2594574 35 92 35 92 7 99.2594574 7 99.2594574 17.8058618 109.740918 17.8058618"></polyline>
            <path d="M134.718651,22.639831 C134.384444,20.758868 132.711905,19.5301901 130.890535,19.5301901 C128.920714,19.5301901 127.285476,20.6051373 126.875913,22.639831 L134.718651,22.639831 Z M141,26.6710775 L126.764385,26.6710775 C126.764385,29.5121761 128.214623,31.0483154 131.002063,31.0483154 C132.451171,31.0483154 133.492599,30.5489826 134.235992,29.2432447 L140.740396,29.2432447 C140.219306,31.5468698 138.881726,33.2359613 137.134583,34.3494385 C135.388194,35.4633048 133.232242,36 131.038988,36 C124.720714,36 120,32.3147448 120,25.5194596 C120,18.9541866 124.348452,15 130.556329,15 C137.171885,15 141,19.2227288 141,25.9417324 L141,26.6710775 Z" id="Shape" fill="#FFFFFF" fill-rule="nonzero"></path>
            <path d="M149.916395,25.5194596 C149.916395,28.0149561 151.498,29.934449 154.221149,29.934449 C156.942806,29.934449 158.524783,28.0149561 158.524783,25.5194596 C158.524783,23.1006338 156.942806,21.0659402 154.221149,21.0659402 C151.498,21.0659402 149.916395,23.1006338 149.916395,25.5194596 Z M165,35.3481041 L158.304007,35.3481041 L158.304007,33.1592905 L158.231286,33.1592905 C157.053566,35.1177026 154.735795,36 152.528784,36 C146.936669,36 143,31.1245969 143,25.4809296 C143,19.8372623 146.863202,15 152.454943,15 C154.625407,15 156.905885,15.8445457 158.304007,17.571778 L158.304007,15.6522851 L165,15.6522851 L165,35.3481041 Z" id="Shape" fill="#FFFFFF" fill-rule="nonzero"></path>
            <polygon id="Path" fill="#FFFFFF" fill-rule="nonzero" points="169 35 176 35 176 4 169 4"></polygon>
            <path d="M202.728625,4 L202.728625,18.2672391 L202.802826,18.2672391 C204.355412,16.1757859 206.240027,15.2050246 208.865146,15.2050246 C213.671307,15.2050246 216,18.4167908 216,23.2717336 L216,35 L209.271375,35 L209.271375,25.1772882 C209.271375,22.9359046 208.939347,20.6203132 206.240027,20.6203132 C203.578932,20.6203132 202.728625,22.9359046 202.728625,25.1772882 L202.728625,35 L196,35 L196,4 L202.728625,4" id="Path" fill="#FFFFFF" fill-rule="nonzero"></path>
            <polyline id="Path" fill="#FFFFFF" fill-rule="nonzero" points="193 15.8395784 189.284177 15.8395784 189.284177 4 182.71619 4 182.71619 15.8395784 179 15.8395784 179 21.4419014 182.71619 21.4419014 182.71619 35 189.284177 35 189.284177 21.4419014 193 21.4419014 193 15.8395784"></polyline>
            <path d="M61.9899205,28 L52.079003,28 C52.1875556,27.8743929 52.2478576,27.8046535 52.2478576,27.8046535 C52.2982992,27.7494323 52.3395695,27.6804058 52.3395695,27.6481935 C52.3395695,27.6481935 52.7660301,26.437929 52.9081836,26.4287255 C52.9769676,26.4241237 52.9815532,26.4149202 52.9311116,26.4011149 C52.8348141,26.378106 52.8898413,25.8581065 52.8531565,25.8443012 C52.7935437,25.8258941 52.8302285,25.5681952 52.903598,25.4761599 C52.9586252,25.4071334 52.9998956,25.4025316 52.7476877,25.3427087 C52.4954799,25.2828857 52.2662,25.6050093 52.0873617,25.6280182 C51.9589649,25.6418235 50.271465,25.8857171 50.0513564,26.0191683 C49.8495901,26.143416 49.8129053,26.1526195 49.5056702,26.1250089 C49.2442912,26.1020001 48.7352899,26.3458937 48.6756771,26.3919113 C48.4463972,26.575982 48.2262885,26.4793449 47.8227559,26.0191683 C47.4283945,25.5681952 47.400881,25.5451864 47.2724842,25.5773987 C47.0982315,25.6234164 47.0477899,25.5635934 47.1761867,25.4623546 C47.2357994,25.4163369 47.3045834,25.374921 47.332097,25.374921 C47.4100522,25.374921 47.5246921,25.2092575 47.5246921,25.0942133 C47.5201065,24.9561603 46.6075726,24.0542142 46.5892302,24.0174 C46.5754734,23.9805859 45.8417778,23.3409404 45.7775794,23.2765157 C45.6904531,23.1844804 45.6354259,23.1614716 45.5207859,23.1798786 C45.36029,23.2074892 45.2456501,23.1154539 45.2089653,22.935985 C45.1952085,22.8761621 45.1310102,22.292806 45.1310102,22.6696167 C45.1310102,23.0464274 45.0026134,23.1200557 44.9430007,22.8899674 C44.9200727,22.8025338 44.6678648,22.2549236 44.6449368,22.130676 C44.5073689,21.4818269 44.1680347,20.8651903 43.947926,20.8651903 C43.8928988,20.8651903 43.6911325,20.6074914 43.5856638,20.5614737 C43.1821312,20.3237915 43.1821312,19.3604128 43.1225184,19.1855457 C43.05832,18.9876697 42.9666081,18.490679 42.9528513,18.3986437 C42.9345089,18.2882013 42.8703105,18.1823607 42.7464994,18.0673165 C42.6456163,17.9752812 42.3613092,17.7359894 42.2971109,17.7359894 C42.0540742,17.7313876 41.9027495,17.487494 41.8752359,17.0457244 C41.8660647,16.8524503 41.8706503,16.838645 41.9715334,16.8524503 C42.0632454,16.8662556 41.7009832,16.4659019 41.7009832,16.4336896 C41.7009832,16.4336896 41.2882794,15.853867 41.2882794,15.8124511 C41.2882794,15.7710352 40.8205484,14.9749297 40.802206,14.8414785 C40.7609357,14.5699743 40.4628718,14.123603 40.4628718,14.0361694 C40.4628718,13.925727 40.4078446,13.8428953 40.2244207,13.6588246 C39.9034289,13.3459045 39.6786138,12.8625675 39.6603922,12.8397103 C39.5732659,12.7200643 39.5732659,12.5359937 39.6603922,12.5359937 C39.697077,12.5359937 40.1831504,13.3413028 40.2335919,13.3735151 C40.2886191,13.4057275 40.7838637,13.9717447 40.8388908,13.9901518 C40.9718732,14.0315677 41.0635851,13.9027182 41.0544139,13.6864352 C41.0498283,13.5990017 41.2286666,12.7798873 41.1965674,12.7246661 C41.1736394,12.6786484 41.1690538,12.5958167 41.1828106,12.5451972 C41.2103242,12.4347548 40.7471789,11.468384 40.7059085,11.4177645 C40.6325389,11.3395345 40.6233677,11.3395345 40.5683406,11.4131628 C40.5224846,11.4775875 39.4907251,11.486791 39.4448692,11.4591804 C39.3485716,11.3993575 39.2797876,11.4591804 39.3531572,11.5328087 C39.4815539,11.6616581 39.3990132,11.7076758 39.2706165,11.5834281 C39.1972469,11.5144016 39.1330485,11.4223663 39.1330485,11.3809504 C39.1330485,11.2935169 38.8166423,11.2244904 38.7478583,11.2935169 C38.6882456,11.3533398 38.4222809,11.4269681 38.2892986,11.2474992 C38.1563162,11.0680303 37.6198013,11.5834281 37.5739453,11.6432511 C37.5005758,11.7260829 37.3079807,11.7260829 37.1612416,11.6386493 C37.0970432,11.6018352 36.5926275,11.5374105 36.5467715,11.5005963 C36.5467715,11.5005963 36.244122,11.4499769 36.1799237,11.408561 C36.0744549,11.3395345 35.6479944,11.270508 34.9830827,11.2152868 C34.740046,11.1968798 34.6987757,11.1784727 34.6345773,11.0680303 C34.5657933,10.9529862 34.5291086,10.9345791 34.2356303,10.9115703 C34.056792,10.8931632 33.4574585,10.8011279 33.3093396,10.6032519 C33.1612207,10.405376 33.1717717,10.4145795 32.859951,10.345553 C32.5939864,10.2903319 32.4013913,10.2949336 32.0437147,10.3639601 C31.6676957,10.4375884 31.4521726,10.5710396 31.3421182,10.8011279 C31.2228927,11.0496233 31.2183071,11.2244904 31.3375326,11.4545787 C31.3879742,11.5558175 31.4292446,11.6800652 31.4292446,11.7352864 C31.4292446,11.8549323 31.2045503,12.1494453 30.9936128,12.2967019 C30.8560449,12.3979407 30.8239457,12.4025425 30.6772066,12.3519231 C30.5900802,12.3243125 29.8426278,11.8089147 29.6179335,11.703074 C29.2556713,11.5328087 29.1960586,11.5190034 28.9759499,11.546614 C28.7971116,11.5650211 28.6916428,11.5558175 28.5953453,11.5051981 C28.4348494,11.4223663 28.2193263,11.0634286 28.2193263,10.8793579 C28.2193263,10.7136943 28.0955152,10.6124555 27.8387217,10.561836 C27.7194962,10.543429 27.5773426,10.4928096 27.5223155,10.4559954 C27.4122611,10.3823672 27.17381,10.2167036 26.7060791,10.3363495 C26.2383481,10.4559954 25.807302,10.1706859 25.6834908,10.1246683 C25.5275805,10.0648453 25.4587965,10.0142259 25.4404542,9.9313941 C25.408355,9.80714641 25.3762558,9.79334112 25.2891294,9.8761729 C25.2432735,9.92679233 24.7342721,9.55865105 24.7342721,9.4298016 C24.7342721,9.31015568 24.8076417,9.22272212 25.1332191,8.96042146 C25.316643,8.81316494 25.4129406,8.59688194 25.3258142,8.50944838 C25.3028862,8.48643955 25.2157599,8.22413888 25.1240479,8.15051063 C24.9360384,7.99865235 24.9039392,7.78697111 25.055264,7.70413932 C25.1057055,7.67652872 25.1836607,7.46484748 25.2249311,7.38661746 C25.339571,7.18874152 25.270787,7.16573269 25.0644352,7.3267945 C24.7892993,7.41422806 24.6517314,7.12431679 24.6654882,7.10590973 C24.7021729,7.04608677 24.5737762,6.96785675 24.5095778,7.01387441 C24.4728931,7.03228147 24.0922885,7.03228147 23.9317926,7.19794505 C23.8721798,7.26697154 23.3402505,7.3129892 23.2898089,7.33599803 C23.2256105,7.35900686 23.152241,7.3405998 23.0467722,7.28077684 C22.9092043,7.19334328 22.8908619,7.19334328 22.8129067,7.26236977 C22.6982668,7.36821039 22.5010861,7.3544051 22.4414733,7.24396271 C22.3818606,7.13352032 22.3360046,7.12891856 22.239707,7.22095388 C22.2030223,7.25776801 22.0058416,7.38201569 21.9278864,7.39582099 C21.8453457,7.40962629 21.5060114,7.46484748 21.4647411,7.41422806 C21.3776147,7.30378567 20.6485047,7.28998037 20.5430359,7.39582099 C20.4880088,7.44644042 20.029449,7.56608634 19.9331515,7.54307751 C19.8643675,7.52006868 19.6809436,7.51086514 19.5296189,7.51546691 C19.3095102,7.52927221 18.8417792,7.79617464 18.7775809,7.79617464 C18.6262562,7.79617464 18.6262562,8.08148414 18.3190211,8.08148414 C18.3190211,8.08148414 17.8076782,8.15051063 17.5990823,8.42201483 C17.4340008,8.59688194 17.3789736,8.62449253 17.2047209,8.6290943 C16.73699,8.63829783 16.6406924,8.61989077 16.5489805,8.50484661 C16.4618541,8.40360776 16.4480973,8.39900599 16.3793133,8.46803249 C16.338043,8.50944838 15.3959351,8.71652785 15.1320308,8.39440423 C15.0311477,8.27936008 14.9852917,8.0722806 14.8614805,8.09528943 C14.5175607,8.1136965 14.5175607,8.67971373 14.4854615,8.71652785 C14.4533624,8.75334198 14.412092,8.87758967 14.3937496,8.98803205 C14.3478936,9.25493448 12.6007809,10.4329866 12.5411682,10.4744025 C12.440285,10.543429 12.4356994,10.5664378 12.4815554,10.6722784 C12.5686818,10.8563491 12.5457538,10.9437826 12.3990146,11.054225 C12.1697348,11.2290921 11.9908965,11.6984723 12.1147076,11.8181182 C12.13305,11.8365253 12.1697348,12.3427195 12.1743204,12.411746 C12.178906,12.5083831 11.9043168,13.0928074 11.7885742,13.1664356 C11.7106191,13.3597098 11.3727842,13.3274975 11.0416778,13.6588246 C10.7105713,13.9901518 10.1749998,13.9717447 10.1749998,13.9717447 L9.95489113,14.280063 C9.8356656,14.4457266 9.78063843,14.4891392 9.73936805,14.6988237 C9.69809767,14.9085083 9.14324036,15.1083809 9.14324036,15.1405933 C9.14324036,15.1728057 8.45081513,16.3876719 8.33158959,16.4981143 C8.1252377,16.6867867 7.72629071,17.487494 7.7446331,17.5473169 C7.75838989,17.6025381 7.43281247,18.0305024 7.37778529,18.0811218 C7.29065894,18.1547501 7.16226221,19.0336874 7.22646057,19.0336874 C7.29065894,19.0336874 7.63457876,19.0336874 7.65292115,19.5306781 C7.67126354,20.0276689 7.63457876,19.8528018 7.5612092,19.8528018 C7.46949725,19.8528018 7.47408284,19.92643 7.57955159,20.1012971 C7.77214669,20.4234207 7.82258826,21.3207651 7.65750675,21.500234 C7.5612092,21.6106764 7.50618203,21.8039506 7.44656926,22.2135077 C7.38695649,22.6138614 6.82348633,23.2765157 6.82348633,23.2765157 C7.11696457,23.5756305 7.30900133,23.7504976 7.30900133,23.8241259 C7.30900133,23.8655418 7.38695649,24.0638101 7.37778529,24.1282349 C7.3594429,24.2156684 7.67126354,24.2428866 7.61165077,24.293506 C7.49701083,24.3809396 7.45115486,24.3809396 7.35027171,24.2889042 C7.24938856,24.1968689 7.12099183,24.5373996 7.22646057,24.5373996 C7.29065894,24.5373996 7.50159643,24.6616473 7.53828121,24.6846561 C7.65750675,24.8089038 7.30900133,24.7506409 7.31817253,24.8871338 C7.32734372,25.0236268 7.60706517,24.9607621 7.60706517,25.1034168 C7.60706517,25.2460716 7.78590348,25.2644787 7.83634505,25.2874875 C7.90054342,25.3196998 7.97849858,25.3150981 8.06562493,25.2828857 C8.16192248,25.2460716 8.23070644,25.2460716 8.32700399,25.2874875 C8.49208551,25.356514 8.45081513,25.4209387 8.23529204,25.4255405 C8.08855292,25.4255405 8.16650808,25.7246553 8.51959909,25.8627082 C8.66175262,25.8258941 8.74429337,25.927133 8.70302299,26.083593 C8.6846806,26.161823 8.70302299,26.2446548 8.75346457,26.3228848 C8.81766293,26.4241237 8.85893331,26.437929 9.01942923,26.4241237 C9.19368194,26.4103184 9.20743873,26.4195219 9.21202433,26.5253626 C9.21202433,26.6081943 9.73936805,26.8482971 9.69809767,27.165008 C9.66141289,27.2294328 9.70726886,27.5883705 9.78063843,27.6251846 C9.8356656,27.657397 9.99616151,28.1359807 10.115387,28.1359807 C10.1658286,28.1359807 10.2896398,28.4212902 10.298811,28.4535025 C10.3171533,28.5409361 10.7206859,28.7342103 10.8765962,28.7342103 C11.0095786,28.7342103 11.1379753,28.798635 11.1379753,28.858458 C11.1379753,28.8814668 11.2626953,29.1483692 11.4589671,29.2127939 C11.5231655,29.231201 12.9411011,30.2804037 13.2198366,30.3586337 L13.5637564,30.4828814 C13.5637564,30.4828814 13.9186511,30.2707027 13.990217,30.2297842 C14.6018982,29.88005 15.7052305,29.9076606 15.7877713,29.88005 C15.8978256,29.8386341 16.223403,29.9352712 16.2600878,29.8708465 C16.3197006,29.7604041 16.393594,29.7189882 16.5077101,29.9076606 C16.6218262,30.096333 16.8470443,30.0549171 16.9708554,30.096333 C17.2001353,30.1699613 17.2001353,30.1699613 17.4798568,30.0273065 C17.6495239,29.939873 17.1089783,29.939873 17.9384165,29.8846518 C18.7678548,29.8294306 20.2736727,29.0893424 20.6072343,29.0379268 C20.9407959,28.9865112 20.9878389,29.0425286 21.180434,29.1391657 C21.5656242,29.3278381 21.8453457,29.6683688 21.8453457,29.9490765 C21.8453457,30.0135012 22.0725708,30.630127 22.8954475,30.528899 C23.1614122,30.5012884 23.41362,30.4552708 23.4640616,30.4276602 C23.5099176,30.4046514 23.8033958,30.4092531 23.8767654,30.3310231 C23.9684773,30.234386 23.9914053,30.2297842 24.0922885,30.2850054 C24.1564868,30.3172178 24.2436132,30.3310231 24.2848836,30.3172178 C24.4453795,30.3172178 24.4453795,30.7083679 24.5370914,30.7359785 C24.6012898,30.7497838 24.6884162,30.7497838 24.7342721,30.7359785 C24.8443265,30.6991644 24.8901824,30.7865979 24.8810113,30.9798721 C24.8718401,31.0673057 24.8993536,31.1869516 24.940624,31.2467745 C25.0185792,31.3710222 24.8810113,32.2453578 24.8351553,32.2959772 C24.7892993,32.3511984 24.5462626,32.733145 24.5462626,32.733145 L24.6425602,32.7837644 C24.7480289,32.8389856 24.7663713,33.0046492 24.6654882,33.0414633 C24.5737762,33.0782774 24.6517314,33.225534 24.7892993,33.2715516 C24.8855968,33.303764 24.8764257,33.3129675 24.7113441,33.3589852 C24.5325058,33.4142064 24.5279202,33.4188081 24.5141634,33.6488964 C24.5004067,33.8973918 24.3949379,34.0170377 24.2481988,33.9618165 C24.1564868,33.9250024 24.165658,33.9572148 24.3674243,34.3299578 C24.4683075,34.5186302 24.8534977,35.250311 24.894768,35.3147358 C24.9360384,35.3791605 25.0506784,35.4896029 25.1515615,35.5632311 C25.2478591,35.6368594 25.8485723,36.2304872 25.9494555,36.3271243 C26.1282938,36.4927879 26.3300601,36.9345574 26.3759161,36.9851768 C26.4263576,37.040398 26.4538712,37.037379 26.4538712,37.2842916 C26.4538712,37.5312042 26.7702775,37.5788047 26.7702775,37.5788047 L26.6693943,37.6524329 C26.5776824,37.7260612 26.5730968,37.7398665 26.6372951,37.8641142 C26.6785655,37.9377424 27.0454133,38.1923523 27.0270709,38.6188038 C27.0087285,39.0452553 27.0545845,38.9133168 27.1187829,38.9961486 C27.242594,39.1526087 27.2334228,39.3412811 27.0912693,39.5299535 C26.9858005,39.6634047 26.9812149,39.6910153 27.0454133,39.7140241 C27.0866837,39.7278294 27.1187829,39.7922541 27.1187829,39.8612806 C27.1187829,40.049953 27.2150804,40.3122537 27.4948019,40.8920762 C27.5223155,41.3472595 27.4475708,41.7640381 27.2059092,42.0793319 C26.9642476,42.3946257 26.889503,42.2726061 26.889503,42.3554378 C26.889503,42.4014555 26.8115478,42.5072961 26.7198359,42.5901279 C26.5180696,42.764995 26.4309432,42.9996851 26.4309432,43.3586229 C26.4309432,43.5380917 26.3438169,43.828108 26.1466362,44.1639319 C25.9494555,44.4997559 26.0044827,45.9080013 26.0044827,45.9080013 L26.2383481,46.1426913 C26.5318264,46.4418061 27.0270709,47.4265841 27.0270709,47.7072918 C27.0270709,47.7395042 27.1004405,47.8637518 27.1875668,47.9879995 C27.2746932,48.1122472 27.4306035,48.5218044 27.5314867,48.6690609 C27.7011538,48.9083527 27.7194962,48.9543704 27.710325,49.198264 C27.6965682,49.5986176 27.7607665,50.123219 27.8524785,50.4085285 C27.9533616,50.712245 27.8524785,51.1829987 27.9304336,51.2460499 C27.9900464,51.2663116 27.9900464,51.3841029 28.0038032,51.48074 C28.01756,51.5727753 28.1688847,51.7207794 28.1459567,51.9225095 C28.1276143,51.9961378 28.1413711,52.069766 28.1688847,52.0835713 C28.1963983,52.1019784 28.2193263,52.1756066 28.2193263,52.2446331 C28.2193263,52.4102967 28.5082189,52.8980839 28.7558412,53.1557828 C28.8658955,53.2662252 28.9279049,53.5285259 28.9966888,53.5929506 C29.1159144,53.7079947 29.3657257,54.0853396 29.3657257,54.2371978 C29.3657257,54.3982597 29.5950056,55.1115334 29.6867175,55.2265776 C29.7371591,55.2910023 30.1033936,56.0272848 29.9618534,56.3402049 C29.9251686,56.4138332 29.8838982,56.4322403 29.8013575,56.4092314 C29.7050599,56.3862226 29.6867175,56.3954261 29.6867175,56.4920632 C29.6867175,56.5518862 29.7463303,56.6715321 29.8151142,56.7589657 C29.9939525,56.9752487 30.0581509,57.1040981 30.0122949,57.1547175 C29.9526822,57.2191423 29.9114118,57.6240977 29.9618534,57.65631 C30.1147614,57.7069295 30.2324036,57.4630359 30.2874308,57.5458677 C30.3103588,57.5826818 30.2251089,57.7575489 30.3516292,57.7069295 C30.4781494,57.65631 31.1082528,58.0244513 31.1082528,57.9554248 C31.1082528,57.9278142 31.3994293,57.7207348 31.7685788,57.7437436 C32.1377283,57.7667524 32.1721114,57.7207348 32.4013913,57.5964871 C32.6719415,57.4446288 33.7403858,57.4584341 33.8320977,57.5366641 C33.8596113,57.559673 34.0806885,57.7437436 34.3410991,57.440027 C34.740046,57.5090535 34.7079469,57.3065758 34.740046,57.2789652 C34.8271724,57.2099387 35.1298218,57.1639211 35.1665066,57.2145405 C35.2031914,57.2789652 35.3957865,57.2145405 35.7442919,57.0304699 C36.1432389,56.8233904 36.4504739,56.5840985 37.042016,56.0272848 C37.3675935,55.7235683 38.5369208,54.292419 38.5369208,54.2417996 C38.5369208,54.135959 38.9175254,53.7218 39.1330485,53.5929506 C39.3714996,53.4502958 39.7750322,52.5144653 39.8529873,51.9593236 C39.9309425,51.4041819 39.9171857,51.7292353 39.8621585,51.697023 C39.8300594,51.6740141 39.7154194,51.6372 39.6879058,51.5727753 C39.6420499,51.4669347 39.7750322,51.3196782 39.7750322,51.2966693 C39.7750322,51.2276428 40.426187,50.8088821 40.5958542,50.7766698 C41.1598827,50.6662274 41.5359017,50.4315373 41.6505416,50.1186172 C41.71474,49.9529536 41.71474,49.8885289 41.6505416,49.9299448 C41.5955144,49.9621572 41.7835239,48.7979103 41.7422535,48.8899457 C41.7009832,48.9911845 41.5496584,48.0018048 41.4717033,47.978796 C41.4350185,47.9649907 41.3295498,47.5232211 41.3708201,47.3575576 C41.4029193,47.2379116 41.4029193,47.1412746 41.3754057,47.0906551 C41.3249642,46.9894163 41.4029193,46.9249916 41.4900457,46.9986198 C41.5221449,47.0262304 41.5634152,47.0308322 41.5909288,47.0078233 C41.6138568,46.9848145 43.3976543,45.558267 43.4205823,45.5352582 C43.5122942,45.4478246 44.9475863,44.6103032 44.9796854,44.6103032 C44.9796854,44.6103032 45.2685781,44.182339 45.3190197,44.1409231 C45.4244884,44.0488878 45.337362,43.8832242 45.3923892,43.8372065 C45.5253715,43.7175606 45.5987411,43.5703041 45.5987411,43.4184458 C45.5987411,43.317207 45.5712275,43.2803928 45.4841012,43.257384 C45.3648756,43.2251716 45.5345427,42.5901279 45.5070292,41.9182701 C45.4886868,41.3154387 45.497858,41.1819875 45.5803987,40.9657045 C45.6629395,40.7540233 45.6629395,40.7448197 45.5712275,40.620572 C45.5162004,40.5515455 45.0484694,40.2386255 45.0484694,40.1511919 C45.0484694,40.109776 44.6449368,38.9961486 44.8100183,38.3703084 C44.8283607,38.3426978 44.8788023,38.3104855 44.9200727,38.2920784 C45.1310102,38.036499 44.4523417,37.5972117 44.4660985,37.5649994 C44.4752697,37.5281852 44.8237751,36.5572126 44.8696311,36.5434073 C44.9750998,36.5157967 45.3327764,35.7427 45.3969748,35.6598682 C45.4611732,35.5724347 45.6124979,35.1812845 45.7408946,35.1766828 C45.805093,35.1766828 45.896805,35.1352669 45.9426609,35.0846475 C45.9707866,35.0536002 46.0092627,35.0225529 46.0443343,35 L61.8772927,35 C59.91088,50.2313933 46.8661343,62 31.0667634,62 C13.9090637,62 0,48.1208272 0,31 C0,13.8791728 13.9090637,0 31.0667634,0 C47.2102236,0 60.4777679,12.2867979 61.9899205,28 Z" id="Oval-1" fill="#FFFFFF"></path>
        </g>
    </g>
</svg>