<svg class="" xmlns="http://www.w3.org/2000/svg" width="38.058" height="31.802" viewBox="0 0 38.058 31.802"><defs><style>.a{fill:none;stroke:#0090ff;stroke-linecap:round;stroke-linejoin:round;stroke-width:3px;}</style></defs><g transform="translate(1.5 1.618)"><path class="a" d="M27,32.061V28.874A6.374,6.374,0,0,0,20.623,22.5H7.874A6.374,6.374,0,0,0,1.5,28.874v3.187" transform="translate(-1.5 -3.377)"/><path class="a" d="M20.248,10.874A6.374,6.374,0,1,1,13.874,4.5a6.374,6.374,0,0,1,6.374,6.374Z" transform="translate(-1.126 -4.5)"/><path class="a" d="M34.781,32.049V28.862A6.374,6.374,0,0,0,30,22.7" transform="translate(0.277 -3.365)"/><path class="a" d="M24,4.695a6.374,6.374,0,0,1,0,12.35" transform="translate(-0.097 -4.488)"/></g></svg>